<svg xmlns="http://www.w3.org/2000/svg" width="40.536" height="40.536" viewBox="0 0 40.536 40.536"><g transform="translate(4 5)"><g transform="translate(-4 -5)"><path d="M20.268,0A20.268,20.268,0,1,0,40.536,20.268,20.291,20.291,0,0,0,20.268,0ZM31.844,14.459l-14.6,14.6a1.688,1.688,0,0,1-2.388,0L7,21.215A.844.844,0,0,1,7,20.02L8.2,18.826a.845.845,0,0,1,1.194,0l6.654,6.654,13.41-13.41a.845.845,0,0,1,1.194,0l1.194,1.194A.844.844,0,0,1,31.844,14.459Z" transform="translate(0 0)" fill="#0dd67f"/></g></g></svg>