<svg xmlns="http://www.w3.org/2000/svg" width="40.715" height="38.368" viewBox="0 0 40.715 38.368"><g transform="translate(0 -14.759)"><g transform="translate(0 14.759)"><path d="M39.869,44.117,25.486,17.679a5.965,5.965,0,0,0-10.258,0L.847,44.117a5.961,5.961,0,0,0,5.128,9.009H34.74A5.962,5.962,0,0,0,39.869,44.117ZM20.358,48.355a2.386,2.386,0,1,1,2.386-2.386A2.389,2.389,0,0,1,20.358,48.355Zm2.386-9.543a2.386,2.386,0,1,1-4.771,0V26.884a2.386,2.386,0,1,1,4.771,0Z" transform="translate(0 -14.759)" fill="#f8d061"/></g></g></svg>