<svg xmlns="http://www.w3.org/2000/svg" xmlns:xlink="http://www.w3.org/1999/xlink" width="105.817" height="100.739" viewBox="0 0 105.817 100.739"><defs><linearGradient id="a" x1="0.509" y1="0.997" x2="0.509" y2="-0.003" gradientUnits="objectBoundingBox"><stop offset="0" stop-color="gray" stop-opacity="0.251"/><stop offset="0.54" stop-color="gray" stop-opacity="0.122"/><stop offset="1" stop-color="gray" stop-opacity="0.102"/></linearGradient><linearGradient id="b" x1="0.813" y1="0.841" x2="0.813" y2="-0.159" xlink:href="#a"/><linearGradient id="c" x1="1.78" y1="0.849" x2="1.78" y2="-0.151" xlink:href="#a"/><linearGradient id="d" x1="0.5" y1="1" x2="0.5" y2="0" xlink:href="#a"/><linearGradient id="f" x1="0.5" y1="0.999" x2="0.5" y2="-0.001" xlink:href="#a"/></defs><rect width="56.384" height="77.904" transform="matrix(0.978, -0.21, 0.21, 0.978, 8.918, 17.481)" fill="#e0e0e0"/><g transform="translate(10.127 7.14)" opacity="0.5"><rect width="54.478" height="75.271" transform="matrix(0.978, -0.21, 0.21, 0.978, 0, 11.429)" fill="url(#a)"/></g><rect width="53.091" height="73.608" transform="matrix(0.978, -0.21, 0.21, 0.978, 10.92, 18.965)" fill="#fafafa"/><rect width="26.338" height="6.38" transform="matrix(0.978, -0.21, 0.21, 0.978, 23.398, 13.024)" fill="url(#b)"/><path d="M441.383,91.354a3.77,3.77,0,1,0,4.387,2.913A3.726,3.726,0,0,0,441.383,91.354Zm1.248,5.819a2.175,2.175,0,1,1,1.62-2.58,2.149,2.149,0,0,1-1.62,2.58Z" transform="translate(-406.417 -87.185)" fill="url(#c)"/><rect width="25.783" height="6.099" transform="matrix(0.978, -0.21, 0.21, 0.978, 23.611, 12.698)" fill="#c5c5c5"/><path d="M441.7,91.353a3.6,3.6,0,1,0,4.28,2.767A3.6,3.6,0,0,0,441.7,91.353Zm1.192,5.561a2.08,2.08,0,1,1,1.6-2.469,2.08,2.08,0,0,1-1.6,2.469Z" transform="translate(-406.738 -87.185)" fill="#c5c5c5"/><rect width="56.384" height="77.904" transform="translate(33.273 15.084)" fill="#e0e0e0"/><g transform="translate(34.226 16.401)" opacity="0.5"><rect width="54.478" height="75.271" fill="url(#d)"/></g><rect width="53.091" height="73.608" transform="translate(34.919 20.956)" fill="#fff"/><rect width="26.338" height="6.38" transform="translate(48.365 13.764)" fill="url(#d)"/><path d="M642,118a3.771,3.771,0,1,0,3.682,3.77A3.727,3.727,0,0,0,642,118Zm0,5.945a2.175,2.175,0,1,1,2.124-2.175A2.149,2.149,0,0,1,642,123.935Z" transform="translate(-580.468 -110.464)" fill="url(#f)"/><rect width="25.783" height="6.099" transform="translate(48.643 13.49)" fill="#c5c5c5"/><path d="M642.533,118a3.6,3.6,0,1,0,3.6,3.6A3.6,3.6,0,0,0,642.533,118Zm0,5.683a2.082,2.082,0,1,0,0-.006Z" transform="translate(-580.999 -110.464)" fill="#c5c5c5"/><g transform="translate(0.837 95.093)" opacity="0.5"><rect width="0.485" height="2.752" transform="translate(1.133)" fill="#47e6b1"/><rect width="0.485" height="2.752" transform="translate(2.752 1.134) rotate(90)" fill="#47e6b1"/></g><g transform="translate(57.118)" opacity="0.5"><rect width="0.485" height="2.752" transform="translate(1.133)" fill="#47e6b1"/><rect width="0.485" height="2.752" transform="translate(2.752 1.133) rotate(90)" fill="#47e6b1"/></g><path d="M947.579,824.721a.6.6,0,0,1-.332-.719.282.282,0,0,0,.013-.066h0a.3.3,0,0,0-.535-.2h0a.288.288,0,0,0-.034.058.6.6,0,0,1-.719.332.287.287,0,0,0-.066-.013h0a.3.3,0,0,0-.2.535h0a.288.288,0,0,0,.058.034.6.6,0,0,1,.332.719.285.285,0,0,0-.013.066h0a.3.3,0,0,0,.535.2h0a.289.289,0,0,0,.034-.058.6.6,0,0,1,.719-.332.285.285,0,0,0,.066.013h0a.3.3,0,0,0,.2-.535h0A.286.286,0,0,0,947.579,824.721Z" transform="translate(-848.095 -725.047)" fill="#4d8af0" opacity="0.5"/><path d="M313.169,619.661a.6.6,0,0,1-.332-.719.286.286,0,0,0,.013-.066h0a.3.3,0,0,0-.535-.2h0a.286.286,0,0,0-.034.058.6.6,0,0,1-.719.332.285.285,0,0,0-.066-.013h0a.3.3,0,0,0-.2.535h0a.286.286,0,0,0,.058.034.6.6,0,0,1,.332.719.286.286,0,0,0-.013.066h0a.3.3,0,0,0,.535.2h0a.286.286,0,0,0,.034-.058.6.6,0,0,1,.719-.332.285.285,0,0,0,.066.013h0a.3.3,0,0,0,.2-.535h0A.284.284,0,0,0,313.169,619.661Z" transform="translate(-295.536 -546.443)" fill="#fdd835" opacity="0.5"/><path d="M841.579,120.341a.6.6,0,0,1-.332-.719.288.288,0,0,0,.013-.066h0a.3.3,0,0,0-.536-.2h0a.288.288,0,0,0-.034.058.6.6,0,0,1-.719.332.285.285,0,0,0-.066-.013h0a.3.3,0,0,0-.2.535h0a.287.287,0,0,0,.058.034.6.6,0,0,1,.332.719.288.288,0,0,0-.013.066h0a.3.3,0,0,0,.535.2h0a.288.288,0,0,0,.034-.058.6.6,0,0,1,.719-.332.287.287,0,0,0,.066.013h0a.3.3,0,0,0,.2-.535h0A.285.285,0,0,0,841.579,120.341Z" transform="translate(-755.771 -111.545)" fill="#fdd835" opacity="0.5"/><circle cx="0.972" cy="0.972" r="0.972" transform="translate(103.874 39.601)" fill="#f55f44" opacity="0.5"/><circle cx="0.972" cy="0.972" r="0.972" transform="translate(28.797 95.36)" fill="#f55f44" opacity="0.5"/><circle cx="0.972" cy="0.972" r="0.972" transform="translate(93.897 60.6)" fill="#f55f44" opacity="0.5"/><circle cx="0.972" cy="0.972" r="0.972" transform="translate(10.271 11.459)" fill="#4d8af0" opacity="0.5"/><circle cx="0.972" cy="0.972" r="0.972" transform="translate(0 37.961)" fill="#47e6b1" opacity="0.5"/></svg>